<?xml version="1.0" encoding="UTF-8" standalone="no"?>
<svg
   xmlns:dc="http://purl.org/dc/elements/1.1/"
   xmlns:cc="http://creativecommons.org/ns#"
   xmlns:rdf="http://www.w3.org/1999/02/22-rdf-syntax-ns#"
   xmlns:svg="http://www.w3.org/2000/svg"
   xmlns="http://www.w3.org/2000/svg"
   xmlns:xlink="http://www.w3.org/1999/xlink"
   xmlns:sodipodi="http://sodipodi.sourceforge.net/DTD/sodipodi-0.dtd"
   xmlns:inkscape="http://www.inkscape.org/namespaces/inkscape"
   viewBox="0 0 606.23108 303.2428"
   version="1.1"
   id="svg99"
   sodipodi:docname="green_car.svg"
   width="606.23108"
   height="303.2428"
   inkscape:version="0.92.4 (5da689c313, 2019-01-14)">
  <metadata
     id="metadata103">
    <rdf:RDF>
      <cc:Work
         rdf:about="">
        <dc:format>image/svg+xml</dc:format>
        <dc:type
           rdf:resource="http://purl.org/dc/dcmitype/StillImage" />
        <dc:title></dc:title>
      </cc:Work>
    </rdf:RDF>
  </metadata>
  <sodipodi:namedview
     pagecolor="#ffffff"
     bordercolor="#666666"
     borderopacity="1"
     objecttolerance="10"
     gridtolerance="10"
     guidetolerance="10"
     inkscape:pageopacity="0"
     inkscape:pageshadow="2"
     inkscape:window-width="3300"
     inkscape:window-height="1312"
     id="namedview101"
     showgrid="false"
     fit-margin-top="0"
     fit-margin-left="0"
     fit-margin-right="0"
     fit-margin-bottom="0"
     inkscape:zoom="1.9666667"
     inkscape:cx="354.70669"
     inkscape:cy="238.19417"
     inkscape:window-x="1580"
     inkscape:window-y="54"
     inkscape:window-maximized="1"
     inkscape:current-layer="svg99" />
  <defs
     id="defs25">
    <linearGradient
       id="ak"
       x1="271.03036"
       x2="247.02037"
       y1="806.51831"
       y2="803.25647"
       xlink:href="#a"
       gradientTransform="matrix(0.91644894,0,0,1.0911683,-16.002516,-86.982544)"
       gradientUnits="userSpaceOnUse" />
    <linearGradient
       id="ae"
       x1="271.03036"
       x2="247.02036"
       y1="546.09814"
       y2="549.375"
       xlink:href="#a"
       gradientTransform="matrix(0.91644898,0,0,1.0911682,-16.002516,-86.982544)"
       gradientUnits="userSpaceOnUse" />
    <linearGradient
       id="ac"
       x1="906.9314"
       x2="841.69916"
       y1="561.39465"
       y2="564.70502"
       xlink:href="#a"
       gradientTransform="matrix(0.92933291,0,0,1.0760407,-16.002516,-86.982544)"
       gradientUnits="userSpaceOnUse" />
    <linearGradient
       id="ad"
       x1="256.12152"
       x2="230.27164"
       y1="541.836"
       y2="550.00812"
       xlink:href="#a"
       gradientTransform="matrix(0.89435668,0,0,1.1181221,-16.002516,-86.982544)"
       gradientUnits="userSpaceOnUse" />
    <linearGradient
       id="af"
       x1="953.16302"
       x2="940.49792"
       y1="767.87195"
       y2="767.94812"
       xlink:href="#a"
       gradientTransform="matrix(0.92934622,0,0,1.0760252,-16.002516,-86.982544)"
       gradientUnits="userSpaceOnUse" />
    <linearGradient
       id="ag"
       x1="749.79926"
       x2="738.5127"
       y1="1002.7336"
       y2="994.35199"
       xlink:href="#a"
       gradientTransform="matrix(1.1932838,0,0,0.83802362,-16.002516,-86.982544)"
       gradientUnits="userSpaceOnUse" />
    <linearGradient
       id="aj"
       x1="256.12149"
       x2="230.27161"
       y1="793.56604"
       y2="785.39392"
       xlink:href="#a"
       gradientTransform="matrix(0.89435678,0,0,1.118122,-16.002516,-86.982544)"
       gradientUnits="userSpaceOnUse" />
    <linearGradient
       id="ah"
       x1="735.95874"
       x2="698.47412"
       y1="1014.2308"
       y2="953.40942"
       xlink:href="#a"
       gradientTransform="matrix(1.1932838,0,0,0.83802362,-16.002516,-86.982544)"
       gradientUnits="userSpaceOnUse" />
    <linearGradient
       id="ai"
       x1="929.50311"
       x2="849.98651"
       y1="774.66467"
       y2="775.70764"
       xlink:href="#a"
       gradientTransform="matrix(0.92933291,0,0,1.0760407,-16.002516,-86.982544)"
       gradientUnits="userSpaceOnUse" />
    <linearGradient
       id="ab"
       x1="929.50311"
       x2="849.98651"
       y1="572.31909"
       y2="571.27612"
       xlink:href="#a"
       gradientTransform="matrix(0.92933291,0,0,1.0760407,-16.002516,-86.982544)"
       gradientUnits="userSpaceOnUse" />
    <linearGradient
       id="aa"
       x1="735.95874"
       x2="698.47412"
       y1="715.26593"
       y2="776.13116"
       xlink:href="#a"
       gradientTransform="matrix(1.1932838,0,0,0.83802362,-16.002516,-86.982544)"
       gradientUnits="userSpaceOnUse" />
    <linearGradient
       id="u"
       x1="906.93323"
       x2="841.70093"
       y1="785.58008"
       y2="782.24701"
       xlink:href="#a"
       gradientTransform="matrix(0.92933101,0,0,1.0760429,-16.002516,-86.982544)"
       gradientUnits="userSpaceOnUse" />
    <linearGradient
       id="a">
      <stop
         stop-color="#1a1a1a"
         offset="0"
         id="stop14" />
      <stop
         stop-color="#f30000"
         stop-opacity="0"
         offset="1"
         id="stop16" />
    </linearGradient>
    <linearGradient
       id="t"
       x1="921.1662"
       x2="896.21667"
       y1="780.31268"
       y2="773.23138"
       xlink:href="#a"
       gradientTransform="matrix(0.92934622,0,0,1.0760252,-16.002516,-86.982544)"
       gradientUnits="userSpaceOnUse" />
    <linearGradient
       id="v"
       x1="951.22217"
       x2="882.18585"
       y1="775.07452"
       y2="769.8714"
       xlink:href="#a"
       gradientTransform="matrix(0.92934622,0,0,1.0760252,-16.002516,-86.982544)"
       gradientUnits="userSpaceOnUse" />
    <linearGradient
       id="w"
       x1="921.1662"
       x2="896.21667"
       y1="566.6521"
       y2="573.7334"
       xlink:href="#a"
       gradientTransform="matrix(0.92934622,0,0,1.0760252,-16.002516,-86.982544)"
       gradientUnits="userSpaceOnUse" />
    <linearGradient
       id="z"
       x1="749.79926"
       x2="738.5127"
       y1="726.80707"
       y2="735.18866"
       xlink:href="#a"
       gradientTransform="matrix(1.1932838,0,0,0.83802362,-16.002516,-86.982544)"
       gradientUnits="userSpaceOnUse" />
    <linearGradient
       id="x"
       x1="953.16302"
       x2="940.49792"
       y1="579.09277"
       y2="579.04205"
       xlink:href="#a"
       gradientTransform="matrix(0.92934622,0,0,1.0760252,-16.002516,-86.982544)"
       gradientUnits="userSpaceOnUse" />
    <linearGradient
       id="y"
       x1="951.22217"
       x2="882.18585"
       y1="571.89954"
       y2="577.1026"
       xlink:href="#a"
       gradientTransform="matrix(0.92934622,0,0,1.0760252,-16.002516,-86.982544)"
       gradientUnits="userSpaceOnUse" />
  </defs>
  <path
     d="m 351.68748,7.0154556 c -0.94443,0.006 -2.9556,0.19088 -4.0496,0.58691 l -2.1911,0.9391 5.4191,22.4980004 -78.136,0.1761 c -1.5252,0.003 -3.0598,-0.009 -4.5974,-0.0195 -3.0751,-0.0215 -6.1758,-0.0655 -9.2927,-0.13694 -4.5655,-0.10474 -9.1832,-0.25851 -13.812,-0.44997 -0.24783,-0.0103 -0.49542,-0.0286 -0.74341,-0.0391 -9.3482,-0.39452 -18.786,-0.93385 -28.191,-1.526 -12.725,-0.80303 -25.367,-1.695 -37.64,-2.4259 -9.0951,-0.5417 -17.987,-0.98888 -26.528,-1.2521 -5.8654,-0.18076 -11.559,-0.2858 -17.059,-0.25432 -2.7018,0.0155 -5.3638,0.0584 -7.9623,0.13695 -2.5985,0.0786 -5.2463,0.22242 -7.9232,0.41084 -1.3385,0.0942 -2.678,0.19422 -4.0301,0.31302 -4.0498,0.35584 -8.1667,0.82726 -12.266,1.3694 -0.006,6.1e-4 -0.0132,-6.1e-4 -0.0195,0 -2.737396,0.3622 -5.458096,0.76723 -8.177496,1.1934 -2.7194,0.42617 -5.4299,0.87511 -8.0993,1.3499 -2.663004,0.47365 -5.302804,0.97998 -7.884104,1.4868 -0.0063,10e-4 -0.01327,-0.001 -0.01954,0 -1.2936,0.25409 -2.5478,0.50345 -3.8149,0.76297 -3.7947,0.77732 -7.471,1.5752 -10.956,2.3672 -0.0063,0.001 -0.01321,-10e-4 -0.01954,0 -2.3266,0.52894 -4.5621,1.0487 -6.7102,1.5651 -4.297,1.0319 -8.2107,2.025 -11.601,2.915 -5.0857,1.335 -9.0039,2.45859 -11.327,3.1302 -1.5486,0.44809 -2.3867,0.70428 -2.3867,0.70428 l -8.5688,2.3476 c -0.56493,0.1557 -1.1132,0.43376 -1.6433,0.82169 -0.18012,0.13177 -0.35204,0.27288 -0.52821,0.43038 -0.68838,0.61328 -1.3466,1.42151 -1.9759,2.4063 -0.0029,0.004 0.0029,0.0152 0,0.0195 -0.31324,0.49127 -0.64009,1.027 -0.93904,1.6042 -0.0026,0.005 0.0026,0.0145 0,0.0195 -0.29898,0.57826 -0.59545,1.1984 -0.88036,1.8585 -0.0023,0.006 0.0023,0.0139 0,0.0195 -2.2957,5.3272 -4.1444,13.229 -5.5951,22.674 -9.38e-4,0.006 9.4e-4,0.0133 0,0.0195 -0.02251,0.14659 -0.03637,0.30264 -0.0587,0.44997 -0.3159,2.0856 -0.62104,4.2559 -0.89991,6.4756 -0.01908,0.15192 -0.03979,0.2975 -0.05869,0.44997 -0.31401,2.5312 -0.59268,5.135 -0.8608,7.8059 -6.29e-4,0.006 6.2e-4,0.0132 0,0.0195 -0.13368,1.3325 -0.26864,2.6887 -0.39127,4.0497 -5.7e-4,0.006 5.8e-4,0.0131 0,0.0195 -0.12259,1.3612 -0.24038,2.7228 -0.35214,4.1084 -5.09e-4,0.006 5.21e-4,0.0131 0,0.0195 -0.22396,2.778104 -0.42456,5.600404 -0.60646,8.451504 -4.2e-4,0.006 4.01e-4,0.0131 0,0.0195 -0.54628,8.5668 -0.91375,17.397 -1.1151,26.02 -1.58e-4,0.006 1.51e-4,0.0129 0,0.0195 C 7.06147,138.69891 7,144.34801 7,149.79001 c 0,0.60579 0.01725,1.2288 0.01957,1.839 C 7.01727,152.23916 7,152.86221 7,153.46801 c 0,5.4423 0.06146,11.092 0.19565,16.844 1.6e-4,0.007 -1.51e-4,0.013 0,0.0195 0.20135,8.6229 0.56884,17.453 1.1151,26.02 4.01e-4,0.006 -4.1e-4,0.0132 0,0.0195 0.1819,2.8511 0.3825,5.6734 0.60646,8.4515 5.19e-4,0.006 -5.21e-4,0.0132 0,0.0195 0.11176,1.3856 0.22956,2.7472 0.35214,4.1084 5.82e-4,0.006 -5.68e-4,0.0132 0,0.0195 0.12263,1.361 0.25758,2.7172 0.39128,4.0497 6.1e-4,0.006 -6.29e-4,0.0132 0,0.0195 0.2681,2.6709 0.54679,5.2748 0.86078,7.8059 0.0189,0.15244 0.03961,0.29804 0.0587,0.44995 0.27886,2.2196 0.58401,4.39 0.89991,6.4756 0.02232,0.14734 0.03619,0.30341 0.05869,0.44998 9.4e-4,0.006 -9.4e-4,0.0135 0,0.0195 1.4508,9.4453 3.2995,17.347 5.5952,22.674 0.0023,0.006 -0.0023,0.0141 0,0.0195 0.2849,0.66019 0.58137,1.2803 0.88034,1.8585 0.0026,0.005 -0.0026,0.0145 0,0.0195 0.29896,0.57724 0.6258,1.113 0.93905,1.6042 0.0029,0.004 -0.0029,0.0151 0,0.0195 0.62931,0.9848 1.2875,1.7931 1.9759,2.4063 0.17617,0.1575 0.34809,0.29862 0.52822,0.43039 0.53016,0.38791 1.0784,0.66598 1.6433,0.82169 l 8.5688,2.3476 c 0,0 0.83815,0.2562 2.3868,0.70428 2.3233,0.67163 6.2416,1.7952 11.327,3.1302 3.3904,0.89002 7.3041,1.8831 11.601,2.915 2.1482,0.51636 4.3836,1.0361 6.7102,1.5651 0.0064,10e-4 0.01322,-0.001 0.01954,0 3.4846,0.79205 7.1609,1.5899 10.956,2.3672 1.2671,0.25952 2.5213,0.50888 3.8149,0.763 0.0063,10e-4 0.01326,-0.001 0.01954,0 2.5813,0.50684 5.2211,1.0132 7.884104,1.4868 2.6694,0.47482 5.3798,0.92374 8.0993,1.3499 2.7194,0.42615 5.4402,0.83118 8.177496,1.1934 0.006,6.1e-4 0.0132,-6.1e-4 0.0195,0 4.0996,0.54221 8.2165,1.0136 12.266,1.3695 1.352,0.11877 2.6916,0.21881 4.0301,0.31302 2.6769,0.18842 5.3247,0.33228 7.9232,0.41083 2.5986,0.0786 5.2605,0.12146 7.9623,0.13693 5.5003,0.0315 11.194,-0.0735 17.059,-0.2543 8.5407,-0.26321 17.433,-0.71039 26.528,-1.2521 12.273,-0.73099 24.915,-1.6229 37.64,-2.4259 9.4053,-0.5921 18.843,-1.1314 28.191,-1.526 0.24796,-0.0105 0.49554,-0.0288 0.74341,-0.0391 4.6286,-0.19147 9.2464,-0.34524 13.812,-0.44995 3.1168,-0.0715 6.2175,-0.11548 9.2927,-0.13696 1.5375,-0.0108 3.0722,-0.0229 4.5974,-0.0195 l 78.136,0.1761 -5.419,22.498 2.1911,0.9391 c 1.0941,0.39603 3.1052,0.5813 4.0496,0.58691 0.53122,0.003 1.0987,-0.0464 1.6825,-0.15649 0.19449,-0.0366 0.39035,-0.0883 0.58691,-0.13696 0.19067,-0.0473 0.39603,-0.0981 0.58691,-0.15649 0.3934,-0.12088 0.79102,-0.26392 1.1738,-0.43042 1.1404,-0.49676 2.2126,-1.2092 2.9932,-2.0737 0.006,-0.007 0.0136,-0.0129 0.0195,-0.0195 0.39114,-0.43689 0.69632,-0.90854 0.9195,-1.4282 l 7.6102,-19.603 68.824,0.1565 c 0.46756,0.23407 0.92407,0.46646 1.389,0.68472 1.8651,0.87616 3.7005,1.6258 5.5364,2.2694 0.91544,0.32089 1.8266,0.61069 2.7389,0.88037 3.1928,0.94373 6.378,1.5974 9.6056,2.0346 1.8444,0.24997 3.7098,0.43442 5.5952,0.56735 0.9426,0.0664 1.8994,0.11276 2.8563,0.15652 1.9138,0.0876 3.843,0.13324 5.8299,0.15649 3.9738,0.0464 8.1256,0 12.521,0 6.5171,0 12.722,-0.33258 18.644,-0.97818 2.3686,-0.25827 4.6897,-0.56186 6.9646,-0.9195 4.5498,-0.71527 8.9075,-1.6395 13.088,-2.7389 1.0451,-0.27484 2.0883,-0.56262 3.1106,-0.86078 3.067,-0.89447 6.0179,-1.894 8.8818,-2.9933 0.95453,-0.36639 1.9044,-0.72653 2.8367,-1.1151 1.8646,-0.77722 3.6824,-1.6008 5.4582,-2.465 0.88794,-0.43213 1.7752,-0.87686 2.641,-1.3303 1.7319,-0.90698 3.4224,-1.8656 5.067,-2.8563 0.82227,-0.49533 1.6252,-1.0101 2.4258,-1.5259 4.0031,-2.5794 7.7398,-5.3999 11.21,-8.4711 2.7725,-2.4538 5.385,-5.0583 7.8254,-7.8059 0.003,-0.004 -0.003,-0.0159 0,-0.0195 0.60754,-0.6842 1.2126,-1.372 1.7999,-2.0737 0.003,-0.004 -0.003,-0.0157 0,-0.0195 0.5871,-0.70175 1.1743,-1.4134 1.7412,-2.1324 0.003,-0.004 -0.003,-0.0156 0,-0.0195 1.7063,-2.165 3.3262,-4.3941 4.8518,-6.7103 0.003,-0.004 -0.003,-0.015 0,-0.0195 0.50635,-0.76914 1.0197,-1.5428 1.5064,-2.3281 0.003,-0.005 -0.003,-0.0149 0,-0.0195 1.4653,-2.3652 2.859,-4.7907 4.1475,-7.2972 0.003,-0.005 -0.002,-0.0145 0,-0.0195 0.42761,-0.83209 0.84375,-1.6766 1.2521,-2.5237 0.003,-0.005 -0.002,-0.0143 0,-0.0195 0.4082,-0.8472 0.82385,-1.7009 1.213,-2.5628 0.003,-0.006 -0.002,-0.0142 0,-0.0195 0.78033,-1.7294 1.5263,-3.4756 2.2302,-5.2626 0.002,-0.006 -0.003,-0.014 0,-0.0195 0.35077,-0.89078 0.68536,-1.7951 1.0173,-2.6998 0.002,-0.006 -0.002,-0.0139 0,-0.0195 0.33179,-0.90476 0.66504,-1.8205 0.97815,-2.7389 0.31305,-0.91849 0.62506,-1.8462 0.9195,-2.778 0.002,-0.006 -0.002,-0.0138 0,-0.0195 0.29437,-0.93192 0.58496,-1.8722 0.86084,-2.8172 0.002,-0.006 -0.002,-0.0136 0,-0.0195 0.2757,-0.94507 0.54468,-1.8984 0.80206,-2.8563 0.002,-0.006 -0.002,-0.0136 0,-0.0195 0.77515,-2.8861 1.4827,-5.8259 2.0933,-8.8232 v -0.0195 c 0.20258,-0.99503 0.38263,-2.0061 0.56738,-3.0128 v -0.0195 c 1.2988,-7.0857 2.1674,-14.438 2.6019,-22.048 3e-4,-0.006 -4.3e-4,-0.0132 0,-0.0195 0.0613,-1.0817 0.11188,-2.1759 0.15649,-3.2671 2.4e-4,-0.006 -2.4e-4,-0.0132 0,-0.0195 0.0892,-2.1892 0.15442,-4.3868 0.17602,-6.6125 0,-0.006 -6e-5,-0.0132 0,-0.0195 0.0107,-1.1162 0.006,-2.24 0,-3.3649 0,-0.39804 -0.0137,-0.79596 -0.0194,-1.1934 0.006,-0.39743 0.0194,-0.79535 0.0194,-1.1934 0.006,-1.125 0.0107,-2.2488 0,-3.3649 -6e-5,-0.006 0,-0.0131 0,-0.0195 -0.0213,-2.2258 -0.0868,-4.4233 -0.17602,-6.6125 -2.4e-4,-0.006 2.4e-4,-0.0131 0,-0.0195 -0.0444,-1.0912 -0.0951,-2.1854 -0.15649,-3.2671 -4.3e-4,-0.006 3e-4,-0.0131 0,-0.0195 -0.43457,-7.6106 -1.3031,-14.962 -2.6019,-22.048 v -0.0195 c -0.18475,-1.0067 -0.36481,-2.0178 -0.56738,-3.0128 v -0.0195 c -0.6106,-2.9973 -1.3182,-5.9371 -2.0933,-8.8232 -0.002,-0.006 0.002,-0.0133 0,-0.0195 -0.25738,-0.9579 -0.52637,-1.9112 -0.80206,-2.8563 -0.002,-0.006 0.002,-0.0133 0,-0.0195 -0.27588,-0.944984 -0.56647,-1.885204 -0.86084,-2.817204 -0.002,-0.006 0.002,-0.0139 0,-0.0195 -0.29443,-0.93182 -0.60644,-1.8596 -0.9195,-2.778 -0.31311,-0.91836 -0.64636,-1.8341 -0.97815,-2.7389 -0.002,-0.006 0.002,-0.0139 0,-0.0195 -0.33197,-0.90465 -0.66656,-1.809 -1.0173,-2.6998 -0.003,-0.006 0.002,-0.0139 0,-0.0195 -0.70392,-1.7871 -1.4499,-3.5332 -2.2302,-5.2626 -0.002,-0.005 0.003,-0.014 0,-0.0195 -0.38904,-0.86192 -0.80475,-1.7156 -1.213,-2.5628 -0.002,-0.005 0.003,-0.0146 0,-0.0195 -0.40832,-0.84711 -0.82446,-1.6916 -1.2521,-2.5237 -0.002,-0.005 0.003,-0.0146 0,-0.0195 -1.2884,-2.5065 -2.6822,-4.932 -4.1475,-7.2972 -0.003,-0.004 0.003,-0.0146 0,-0.0195 -0.48663,-0.78525 -1,-1.5589 -1.5064,-2.3281 -0.003,-0.004 0.003,-0.0151 0,-0.0195 -1.5255,-2.3163 -3.1454,-4.5454 -4.8518,-6.7103 -0.003,-0.004 0.003,-0.0159 0,-0.0195 -0.56696,-0.71898 -1.1541,-1.4307 -1.7412,-2.1324 -0.003,-0.004 0.003,-0.0158 0,-0.0195 -0.58722,-0.70175 -1.1923,-1.3896 -1.7999,-2.0738 -0.003,-0.004 0.003,-0.0158 0,-0.0195 -2.4404,-2.7476 -5.0529,-5.3521 -7.8254,-7.8059 -3.4702,-3.0712 -7.2068,-5.8917 -11.21,-8.4711 -0.8006,-0.51587 -1.6036,-1.0306 -2.4258,-1.526 -1.6445,-0.99072 -3.3351,-1.9493 -5.067,-2.8563 -0.86584,-0.45347 -1.753,-0.8982 -2.641,-1.3303 -1.7759,-0.86426 -3.5937,-1.6878 -5.4582,-2.465 -0.93231,-0.38861 -1.8821,-0.74873 -2.8367,-1.1151 -2.8639,-1.0992 -5.8149,-2.0988 -8.8818,-2.9932 -1.0223,-0.29816 -2.0655,-0.58596 -3.1106,-0.8608 -4.1805,-1.0994 -8.5382,-2.0237 -13.088,-2.7389 -2.2749,-0.35766 -4.596,-0.66123 -6.9646,-0.9195 -5.9214,-0.64644 -12.127,-0.97898 -18.644,-0.97898 -4.3951,0 -8.5469,-0.0464 -12.521,0 -1.9869,0.0233 -3.9161,0.0689 -5.8299,0.1565 -0.95688,0.0438 -1.9136,0.0901 -2.8563,0.15651 -1.8853,0.13294 -3.7507,0.31738 -5.5952,0.56735 -3.2276,0.43728 -6.4129,1.0909 -9.6056,2.0346 -0.91226,0.26968 -1.8234,0.55946 -2.7389,0.88036 -1.836,0.64354 -3.6714,1.3932 -5.5364,2.2694 -0.46497,0.21825 -0.92142,0.45064 -1.389,0.68474 l -68.824,0.1565 -7.6102,-19.603 c -0.22314,-0.51962 -0.52832,-0.99123 -0.9195,-1.4282004 -0.006,-0.007 -0.0133,-0.0129 -0.0195,-0.0195 -0.78061,-0.86459 -1.8528,-1.577 -2.9932,-2.0737 -0.38278,-0.16648 -0.78036,-0.30954 -1.1738,-0.43041 -0.19089,-0.0584 -0.39618,-0.10918 -0.58688,-0.15651 -0.19659,-0.0486 -0.39243,-0.10032 -0.58698,-0.13694 -0.58368,-0.11012 -1.1512,-0.15964 -1.6825,-0.15651 v -2.1e-4 z"
     id="path27"
     inkscape:connector-curvature="0"
     style="fill-opacity:0.99599998;stroke:#191919;stroke-width:14" />
  <path
     d="m 351.68748,7.0154556 c -0.94443,0.006 -2.9556,0.19164 -4.0496,0.58691 l -2.1911,0.9391 5.4191,22.4400004 -78.136,0.1761 c -48.808,0.10356 -104.25,-7.2017 -145.83,-5.9474 -41.576996,1.2544 -95.234996,17.529 -95.234996,17.529 l -8.5688,2.3672 c -12.052,3.3157 -16.101,60.955004 -16.101,104.410004 0,0.69679 0.01668,1.4105 0.01957,2.1129 -0.0029,0.70235 -0.01957,1.4161 -0.01957,2.1129 0,43.456 4.0488,101.1 16.101,104.41 l 8.5688,2.3672 c 0,0 53.658,16.275 95.234996,17.529 41.577,1.2544 97.018,-6.0509 145.83,-5.9474 l 78.136,0.1761 -5.4191,22.44 2.1911,0.9391 c 1.0941,0.39529 3.1052,0.5813 4.0496,0.58691 0.53125,0.003 1.0988,-0.0466 1.6825,-0.15652 0.19452,-0.0366 0.39035,-0.0884 0.58691,-0.13693 0.19064,-0.0472 0.396,-0.0982 0.58688,-0.15652 0.39343,-0.1206 0.79102,-0.26422 1.1738,-0.43039 1.1404,-0.49582 2.2126,-1.1912 2.9932,-2.0542 0.006,-0.007 0.0136,-0.013 0.0195,-0.0195 0.39117,-0.4361 0.69635,-0.90952 0.9195,-1.4282 l 7.6102,-19.564 68.824,0.1565 c 14.962,7.4764 28.492,6.7103 46.072,6.7103 83.419,0 117.46,-54.206 117.07,-126.07 0,-0.48845 -0.0118,-0.98013 -0.0194,-1.4673 0.008,-0.48715 0.0194,-0.97884 0.0194,-1.4673 0.39325,-71.862004 -33.649,-126.070004 -117.07,-126.070004 -17.58,0 -31.11,-0.76604 -46.072,6.7103 l -68.824,0.1565 -7.6102,-19.564 c -0.22314,-0.51862 -0.52832,-0.99205 -0.9195,-1.4282004 -0.006,-0.007 -0.0133,-0.0129 -0.0195,-0.0195 -0.78061,-0.86298 -1.8528,-1.5584 -2.9932,-2.0542 -0.38278,-0.16618 -0.78036,-0.30977 -1.1738,-0.4304 -0.19086,-0.0583 -0.39618,-0.10931 -0.58688,-0.15652 -0.19656,-0.0486 -0.3924,-0.10036 -0.58691,-0.13694 -0.58371,-0.10992 -1.1512,-0.15963 -1.6825,-0.15651 v -10e-5 2e-5 z"
     id="path29"
     inkscape:connector-curvature="0"
     style="fill:#007f00" />
  <g
     id="g35"
     style="fill-opacity:0.99599998"
     transform="translate(-16.002516,-86.982544)">
    <path
       d="m 236.1,320.34 c -20.887,0 -40.885,1.1269 -59.356,3.1693 16.064,30.497 61.342,18.947 128.69,19.74 31.106,0.36606 56.057,1.1765 76.082,1.4868 -29.524,-14.608 -83.593,-24.396 -145.42,-24.396 z"
       id="path31"
       inkscape:connector-curvature="0"
       style="opacity:0.9;fill:#262626" />
    <path
       d="m 236.1,320.34 c -2.0074,0 -3.996,0.0185 -5.9864,0.0392 0.51225,10.124 4.0242,18.942 9.1361,24.318 2.9245,-0.0473 5.9443,-0.12305 9.0383,-0.21521 -5.3625,-5.1287 -9.1356,-13.916 -9.8404,-24.142 -0.78336,-0.003 -1.5618,0 -2.3476,0 z"
       id="path33"
       inkscape:connector-curvature="0"
       style="opacity:0.5" />
  </g>
  <path
     d="m 588.63748,215.98746 -3.1888,0.3717 c -13.488,1.573 -23.594,16.264 -24.591,34.139 l -0.2348,4.4605 3.2866,-3.0323 c 9.9472,-9.1905 17.719,-20.351 23.418,-33.024 l 1.3107,-2.915 z"
     id="path37"
     inkscape:connector-curvature="0"
     style="fill:#212121;stroke:#191919;stroke-width:5" />
  <path
     d="m 459.95748,222.87746 c 0,0 49.881,-14.146 65.97,-20.022 16.802,-6.1363 61.889,-24.507 61.889,-24.507 0,0 -5.4722,26.588 -19.083,36.259 -48.344,34.35 -145.67,33.714 -145.67,33.714"
     id="path39"
     inkscape:connector-curvature="0"
     style="opacity:0.5;fill:none;stroke:#292929;stroke-width:6;stroke-linecap:round;stroke-linejoin:round" />
  <path
     d="m 514.10748,209.93746 -2.778,1.4673 c 0.61926,0.72421 1.1241,1.5204 1.4869,2.4063 3.0037,7.3353 -6.7211,18.303 -16.825,22.4 -0.32349,0.1312 -1.1349,0.52624 -2.1324,1.0369 l 8.5297,-2.4259 c 10.834,-5.2948 17.198,-14.45 14.399,-21.285 -0.57355,-1.4006 -1.487,-2.6081 -2.6802,-3.5997 h -6e-5 z"
     id="path41"
     inkscape:connector-curvature="0"
     style="fill:url(#t)" />
  <path
     d="m 519.47748,207.14746 -2.778,1.4673 c 0.6192,0.72421 1.1241,1.5204 1.4869,2.4063 3.0037,7.3353 -6.7211,18.303 -16.825,22.4 -0.32355,0.1312 -1.135,0.52624 -2.1324,1.0369 l 8.5297,-2.4259 c 10.834,-5.2948 17.198,-14.45 14.399,-21.285 -0.57349,-1.4007 -1.4869,-2.6081 -2.6801,-3.5997 h -6e-5 z"
     id="path43"
     inkscape:connector-curvature="0"
     style="fill:url(#af)" />
  <path
     d="m 523.35748,206.26746 -2.778,1.4673 c 0.6192,0.72421 1.124,1.5204 1.4868,2.4063 3.0037,7.3353 -6.7211,18.303 -16.824,22.4 -0.32355,0.1312 -1.135,0.52624 -2.1324,1.0369 l 8.5297,-2.4259 c 10.834,-5.2948 17.198,-14.45 14.399,-21.285 -0.57355,-1.4006 -1.487,-2.6081 -2.6802,-3.5997 h -6e-5 z"
     id="path45"
     inkscape:connector-curvature="0"
     style="fill:url(#v)" />
  <path
     d="m 533.93748,203.58746 -3.8736,1.1542 c 0.60114,1.0723 1.0358,2.2114 1.2717,3.4236 1.9528,10.038 -13.123,21.463 -26.939,24.102 -2.1254,0.40607 -18.082,5.3689 -20.132,5.5119 v 2.5824 l 25.942,-7.6052 c 16.456,-3.4409 28.14,-14.053 26.215,-23.946 -0.37292,-1.9167 -1.2246,-3.6683 -2.4846,-5.2235 h -6e-5 z"
     id="path47"
     inkscape:connector-curvature="0"
     style="fill:url(#ag)" />
  <path
     d="m 533.93748,203.58746 -3.8736,1.1542 c 0.60114,1.0723 1.0358,2.2114 1.2717,3.4236 1.9528,10.038 -13.123,21.463 -26.939,24.102 -2.1254,0.40607 -18.082,5.3689 -20.132,5.5119 v 2.5824 l 25.942,-7.6052 c 16.456,-3.4409 28.14,-14.053 26.215,-23.946 -0.37292,-1.9167 -1.2246,-3.6683 -2.4846,-5.2235 h -6e-5 z"
     id="path49"
     inkscape:connector-curvature="0"
     style="fill:url(#ah)" />
  <path
     d="m 506.06748,212.83746 -2.4816,1.3108 c 0.55316,0.64697 1.0042,1.3582 1.3282,2.1497 2.6833,6.5528 -6.004,16.35 -15.03,20.011 -0.28906,0.11722 -1.0139,0.47015 -1.905,0.92627 l 7.6198,-2.1671 c 9.6783,-4.73 15.363,-12.909 12.863,-19.015 -0.51233,-1.2512 -1.3283,-2.3299 -2.3942,-3.2157 h -1.2e-4 z"
     id="path51"
     inkscape:connector-curvature="0"
     style="fill:url(#ai)" />
  <path
     d="m 497.41748,215.06746 -2.4816,1.3108 c 0.5531,0.64691 1.0041,1.3582 1.3282,2.1496 2.6833,6.5528 -6.004,16.35 -15.03,20.011 -0.28894,0.11725 -1.0138,0.47015 -1.9049,0.92627 l 7.6198,-2.1671 c 9.6783,-4.73 15.363,-12.909 12.863,-19.015 -0.51239,-1.2512 -1.3283,-2.3299 -2.3942,-3.2157 l -10e-5,-1e-4 z"
     id="path53"
     inkscape:connector-curvature="0"
     style="fill:url(#u)" />
  <path
     d="m 115.50748,227.39746 c 5.1917,-1.2667 9.6945,-0.92578 12.394,3.623 l -1.5609,11.204 c -4.3041,3.8647 -8.6082,3.0994 -12.912,0.0973 l 2.0792,-14.924 h 1e-5 z"
     id="path55"
     inkscape:connector-curvature="0"
     style="fill:url(#aj)" />
  <path
     d="m 128.19748,229.44746 c 5.1023,-0.75763 9.4949,-0.35861 11.796,3.4483 l -1.4857,10.664 c -4.0592,1.8623 -8.1278,3.2614 -12.29,0.0926 l 1.979,-14.205 h -2e-5 z"
     id="path57"
     inkscape:connector-curvature="0"
     style="fill:url(#ak)" />
  <path
     d="m 220.09748,231.79746 c -20.943,0 -41,1.1202 -59.532,3.1693 l -2.2889,0.2543 1.076,2.0346 c 4.1764,7.9284 10.368,13.218 18.194,16.551 7.8259,3.3331 17.261,4.7658 28.23,5.2822 21.938,1.0328 50.054,-1.6472 83.634,-1.2521 31.088,0.36584 56.035,1.1762 76.082,1.4868 l 0.7043,-2.9737 c -29.955,-14.822 -84.112,-24.552 -146.1,-24.552 z m 0,3.1302 c 57.076,0 107.52,8.4381 137.78,21.109 -18.751,-0.36462 -40.825,-1.0054 -68.433,-1.3304 -33.767,-0.39734 -61.963,2.2864 -83.516,1.2716 -10.777,-0.50738 -19.887,-1.9441 -27.174,-5.0474 -6.5441,-2.7871 -11.572,-6.983 -15.338,-13.088 17.722,-1.8675 36.77,-2.915 56.675,-2.915 z"
     id="path59"
     inkscape:connector-curvature="0"
     style="opacity:0.9;fill:#191919;stroke-width:5" />
  <g
     id="g73"
     style="fill-opacity:0.99599998"
     transform="translate(-16.002516,-86.982544)">
    <g
       id="g69"
       style="fill:#262626">
      <g
         id="g65"
         style="stroke:#191919;stroke-width:5">
        <path
           d="m 148.56,165.17 -48.674,7.8059 c -16.997,2.7258 -30.643,30.534 -31.928,65.636 1.2848,35.102 14.93,62.91 31.928,65.636 l 48.674,7.8059 c 8.3237,0 15.025,-6.7011 15.025,-15.025 v -116.83 c 0,-8.3238 -6.701,-15.025 -15.025,-15.025 h 1e-5 z"
           id="path61"
           inkscape:connector-curvature="0"
           style="opacity:0.9" />
        <path
           d="m 418.67,143.75 c -1.8588,0 -3.6894,0.20795 -5.4973,0.60648 -0.007,-0.006 -0.013,-0.0131 -0.0195,-0.0195 l -39.968,7.7081 c -11.098,4.1348 -20.033,8.9348 -20.033,20.033 v 133.07 c 0,11.098 8.9347,15.898 20.033,20.033 l 39.968,7.7081 c 0.007,-0.006 0.013,-0.0132 0.0195,-0.0195 1.8079,0.39856 3.6385,0.60651 5.4973,0.60651 28.419,0 51.459,-35.911 51.53,-94.864 -0.0714,-58.953 -23.111,-94.864 -51.53,-94.864 v -7e-5 z"
           id="path63"
           inkscape:connector-curvature="0"
           style="opacity:0.9" />
      </g>
      <path
         d="m 236.1,156.89 c -20.887,0 -40.885,-1.1269 -59.356,-3.1693 16.064,-30.497 61.342,-18.947 128.69,-19.74 31.106,-0.36606 56.057,-1.1765 76.082,-1.4868 -29.524,14.608 -83.593,24.396 -145.42,24.396 z"
         id="path67"
         inkscape:connector-curvature="0"
         style="opacity:0.9" />
    </g>
    <path
       d="m 236.1,156.89 c -2.0074,0 -3.996,-0.0184 -5.9864,-0.0391 0.51225,-10.124 4.0242,-18.942 9.1361,-24.318 2.9245,0.0473 5.9443,0.12303 9.0383,0.2152 -5.3625,5.1287 -9.1356,13.916 -9.8404,24.142 -0.78336,0.003 -1.5618,0 -2.3476,0 z"
       id="path71"
       inkscape:connector-curvature="0"
       style="opacity:0.5" />
  </g>
  <path
     d="m 588.63748,87.267456 -3.1888,-0.3717 c -13.488,-1.573 -23.594,-16.264 -24.591,-34.139 l -0.2348,-4.4605 3.2866,3.0324 c 9.9472,9.1905 17.719,20.351 23.418,33.024 l 1.3107,2.915 z"
     id="path75"
     inkscape:connector-curvature="0"
     style="fill:#212121;stroke:#191919;stroke-width:5" />
  <path
     d="m 459.95748,80.387456 c 0,0 49.881,14.146 65.97,20.022004 16.802,6.1363 61.889,24.507 61.889,24.507 0,0 -5.4722,-26.588004 -19.083,-36.259004 -48.344,-34.35 -145.67,-33.714 -145.67,-33.714"
     id="path77"
     inkscape:connector-curvature="0"
     style="opacity:0.5;fill:none;stroke:#292929;stroke-width:6;stroke-linecap:round;stroke-linejoin:round" />
  <path
     d="m 514.10748,93.317456 -2.778,-1.4673 c 0.61926,-0.7242 1.1241,-1.5204 1.4869,-2.4063 3.0037,-7.3353 -6.7211,-18.303 -16.825,-22.4 -0.32349,-0.13123 -1.1349,-0.52628 -2.1324,-1.0369 l 8.5297,2.4259 c 10.834,5.2948 17.198,14.45 14.399,21.285 -0.57355,1.4007 -1.487,2.6081 -2.6802,3.5997 h -6e-5 z"
     id="path79"
     inkscape:connector-curvature="0"
     style="fill:url(#w)" />
  <path
     d="m 519.47748,96.107456 -2.778,-1.4673 c 0.6192,-0.7242 1.1241,-1.5204 1.4869,-2.4063 3.0037,-7.3353 -6.7211,-18.303 -16.825,-22.4 -0.32355,-0.13121 -1.135,-0.52628 -2.1324,-1.0369 l 8.5297,2.4259 c 10.834,5.2948 17.198,14.45 14.399,21.285 -0.57349,1.4007 -1.4869,2.6081 -2.6801,3.5997 h -6e-5 z"
     id="path81"
     inkscape:connector-curvature="0"
     style="fill:url(#x)" />
  <path
     d="m 523.35748,96.997456 -2.778,-1.4673 c 0.6192,-0.7242 1.124,-1.5204 1.4868,-2.4063 3.0037,-7.3353 -6.7211,-18.303 -16.824,-22.4 -0.32355,-0.13121 -1.135,-0.52628 -2.1324,-1.0369 l 8.5297,2.4259 c 10.834,5.2948 17.198,14.45 14.399,21.285 -0.57355,1.4007 -1.487,2.6081 -2.6802,3.5997 h -6e-5 z"
     id="path83"
     inkscape:connector-curvature="0"
     style="fill:url(#y)" />
  <path
     d="m 533.93748,99.667456 -3.8736,-1.1543 c 0.60114,-1.0723 1.0358,-2.2114 1.2717,-3.4236 1.9528,-10.038 -13.123,-21.463 -26.939,-24.102 -2.1254,-0.40607 -18.082,-5.3689 -20.132,-5.5119 v -2.5824 l 25.942,7.6052 c 16.456,3.4409 28.14,14.053 26.215,23.946 -0.37292,1.9167 -1.2246,3.6683 -2.4846,5.2235 h -6e-5 z"
     id="path85"
     inkscape:connector-curvature="0"
     style="fill:url(#z)" />
  <path
     d="m 533.93748,99.667456 -3.8736,-1.1543 c 0.60114,-1.0723 1.0358,-2.2114 1.2717,-3.4236 1.9528,-10.038 -13.123,-21.463 -26.939,-24.102 -2.1254,-0.40607 -18.082,-5.3689 -20.132,-5.5119 v -2.5824 l 25.942,7.6052 c 16.456,3.4409 28.14,14.053 26.215,23.946 -0.37292,1.9167 -1.2246,3.6683 -2.4846,5.2235 h -6e-5 z"
     id="path87"
     inkscape:connector-curvature="0"
     style="fill:url(#aa)" />
  <path
     d="m 506.06748,90.427456 -2.4816,-1.3108 c 0.55316,-0.64694 1.0042,-1.3582 1.3282,-2.1496 2.6833,-6.5528 -6.004,-16.35 -15.03,-20.011 -0.28906,-0.11723 -1.0139,-0.47014 -1.905,-0.92625 l 7.6198,2.1671 c 9.6783,4.73 15.363,12.909 12.863,19.015 -0.51233,1.2512 -1.3283,2.3299 -2.3942,3.2157 h -1.2e-4 z"
     id="path89"
     inkscape:connector-curvature="0"
     style="fill:url(#ab)" />
  <path
     d="m 497.41748,88.187456 -2.4816,-1.3108 c 0.5531,-0.64693 1.0041,-1.3582 1.3282,-2.1496 2.6833,-6.5528 -6.004,-16.35 -15.03,-20.011 -0.28894,-0.11722 -1.0138,-0.47012 -1.9049,-0.92625 l 7.6198,2.1671 c 9.6783,4.73 15.363,12.909 12.863,19.015 -0.51239,1.2512 -1.3283,2.3299 -2.3942,3.2157 h -10e-5 z"
     id="path91"
     inkscape:connector-curvature="0"
     style="fill:url(#ac)" />
  <path
     d="m 115.50748,75.857456 c 5.1917,1.2667 9.6945,0.9258 12.394,-3.623 l -1.5609,-11.204 c -4.3041,-3.8647 -8.6082,-3.0994 -12.912,-0.0973 l 2.0792,14.924 h 1e-5 z"
     id="path93"
     inkscape:connector-curvature="0"
     style="fill:url(#ad)" />
  <path
     d="m 128.19748,73.817456 c 5.1023,0.75763 9.4949,0.3586 11.796,-3.4483 l -1.4857,-10.664 c -4.0592,-1.8623 -8.1278,-3.2614 -12.29,-0.0926 l 1.979,14.205 h -2e-5 z"
     id="path95"
     inkscape:connector-curvature="0"
     style="fill:url(#ae)" />
  <path
     d="m 220.09748,71.457456 c -20.943,0 -41,-1.1202 -59.532,-3.1693 l -2.2889,-0.2543 1.076,-2.0346 c 4.1764,-7.9284 10.368,-13.218 18.194,-16.551 7.8259,-3.3331 17.261,-4.7658 28.23,-5.2822 21.938,-1.0328 50.054,1.6472 83.634,1.2521 31.088,-0.36583 56.035,-1.1762 76.082,-1.4868 l 0.7043,2.9737 c -29.955,14.822 -84.112,24.552 -146.1,24.552 z m 0,-3.1302 c 57.076,0 107.52,-8.4381 137.78,-21.109 -18.751,0.36459 -40.825,1.0054 -68.433,1.3303 -33.767,0.39734 -61.963,-2.2864 -83.516,-1.2716 -10.777,0.50738 -19.887,1.9441 -27.174,5.0474 -6.5441,2.7872 -11.572,6.983 -15.338,13.088 17.722,1.8675 36.77,2.915 56.675,2.915 z"
     id="path97"
     inkscape:connector-curvature="0"
     style="opacity:0.9;fill:#191919;stroke-width:5" />
</svg>
